<svg xmlns="http://www.w3.org/2000/svg" xmlns:xlink="http://www.w3.org/1999/xlink" width="500" zoomAndPan="magnify" viewBox="0 0 375 374.999991" height="500" preserveAspectRatio="xMidYMid meet" version="1.0"><defs><clipPath id="907e798c6a"><path d="M 0.0078125 0.109375 L 254.992188 0.109375 L 254.992188 55.261719 L 0.0078125 55.261719 Z M 0.0078125 0.109375 " clip-rule="nonzero"/></clipPath><clipPath id="0cbdeb9782"><path d="M 0.0078125 0.109375 L 254.992188 0.109375 L 254.992188 55.261719 L 0.0078125 55.261719 Z M 0.0078125 0.109375 " clip-rule="nonzero"/></clipPath><clipPath id="206afb00b2"><rect x="0" width="255" y="0" height="56"/></clipPath><clipPath id="58cfea6804"><path d="M 96.878906 15.898438 L 158.105469 15.898438 L 158.105469 270.886719 L 96.878906 270.886719 Z M 96.878906 15.898438 " clip-rule="nonzero"/></clipPath><clipPath id="37b39283ed"><path d="M 0.878906 0.898438 L 62.105469 0.898438 L 62.105469 255.886719 L 0.878906 255.886719 Z M 0.878906 0.898438 " clip-rule="nonzero"/></clipPath><clipPath id="a11dfe2819"><rect x="0" width="63" y="0" height="256"/></clipPath><clipPath id="80f28d84ee"><rect x="0" width="256" y="0" height="272"/></clipPath></defs><rect x="-37.5" width="450" fill="#ffffff" y="-37.499999" height="449.999989" fill-opacity="1"/><rect x="-37.5" width="450" fill="#ff4f00" y="-37.499999" height="449.999989" fill-opacity="1"/><g transform="matrix(1, 0, 0, 1, 60, 52)"><g clip-path="url(#80f28d84ee)"><g clip-path="url(#907e798c6a)"><g><g clip-path="url(#206afb00b2)"><g clip-path="url(#0cbdeb9782)"><path fill="#ffffff" d="M 0.0078125 0.109375 L 255.085938 0.109375 L 255.085938 55.261719 L 0.0078125 55.261719 Z M 0.0078125 0.109375 " fill-opacity="1" fill-rule="nonzero"/></g></g></g></g><g clip-path="url(#58cfea6804)"><g transform="matrix(1, 0, 0, 1, 96, 15)"><g clip-path="url(#a11dfe2819)"><g clip-path="url(#37b39283ed)"><path fill="#ffffff" d="M 62.105469 0.898438 L 62.105469 255.847656 L 0.878906 255.847656 L 0.878906 0.898438 Z M 62.105469 0.898438 " fill-opacity="1" fill-rule="nonzero"/></g></g></g></g></g></g></svg>